<svg width="32" height="32" viewBox="0 0 32 32" fill="none" xmlns="http://www.w3.org/2000/svg">
<path d="M27.1124 8H4.89019C3.66289 8 2.66797 8.97684 2.66797 10.1818V21.8182C2.66797 23.0232 3.66289 24 4.89019 24H27.1124C28.3397 24 29.3346 23.0232 29.3346 21.8182V10.1818C29.3346 8.97684 28.3397 8 27.1124 8Z" fill="#007ECD"/>
<path fill-rule="evenodd" clip-rule="evenodd" d="M19.7086 16.3624H21.7028V16.8308H20.3191V17.2352H21.6643V17.6475H20.3191V18.0773H21.7028V18.5341H19.7086V16.3624ZM25.5561 17.2104C26.3058 17.2439 26.3709 17.5741 26.3709 17.9217C26.3635 18.014 26.3372 18.1039 26.2934 18.1859C26.2498 18.2679 26.1895 18.3404 26.1165 18.399C26.0435 18.4576 25.9592 18.501 25.8685 18.5268C25.778 18.5525 25.683 18.5599 25.5894 18.5486H24.308V18.0817H25.3065C25.4754 18.0817 25.7272 18.0817 25.7272 17.873C25.7272 17.7733 25.6835 17.7101 25.505 17.6933C25.425 17.6832 25.1288 17.6686 25.0835 17.6679C24.4065 17.6526 24.2486 17.3573 24.2486 16.9981C24.2495 16.9082 24.2696 16.8196 24.3076 16.7379C24.3456 16.6561 24.4008 16.5832 24.4693 16.5237C24.538 16.4643 24.6185 16.4196 24.7058 16.3927C24.7931 16.3658 24.8852 16.3572 24.9761 16.3675H26.2576V16.8337H25.3139C25.1013 16.8337 24.8694 16.8119 24.8694 17.0228C24.8694 17.1559 24.9828 17.1828 25.1272 17.1952C25.1805 17.1915 25.511 17.2068 25.5561 17.2068V17.2104ZM23.2599 17.2104C24.0094 17.2439 24.0746 17.5741 24.0746 17.9217C24.0671 18.0141 24.0406 18.1039 23.9969 18.186C23.9531 18.268 23.8929 18.3405 23.8198 18.399C23.7466 18.4576 23.6623 18.5011 23.5716 18.5268C23.481 18.5525 23.3861 18.5599 23.2924 18.5486H22.011V18.0817H23.0094C23.1791 18.0817 23.4316 18.0817 23.4316 17.873C23.4316 17.7733 23.3872 17.7101 23.2094 17.6933C23.1294 17.6832 22.8324 17.6686 22.788 17.6679C22.111 17.6526 21.9531 17.3573 21.9531 16.9981C21.954 16.9083 21.9741 16.8197 22.012 16.7381C22.05 16.6564 22.1051 16.5835 22.1735 16.524C22.2421 16.4646 22.3225 16.4199 22.4098 16.393C22.497 16.366 22.589 16.3573 22.6798 16.3675H23.9613V16.8337H23.0243C22.8102 16.8337 22.5799 16.8119 22.5799 17.0228C22.5799 17.1559 22.6939 17.1828 22.8383 17.1952C22.8843 17.1915 23.2146 17.2068 23.2591 17.2068L23.2599 17.2104ZM16.0258 16.3624H13.885L13.1857 17.0381L12.5094 16.3624H10.105V18.5384H12.4317L13.1635 17.8199L13.8791 18.5472H15.0494V17.8083H15.8702C15.9835 17.8336 16.1013 17.8321 16.214 17.8039C16.3265 17.7758 16.4308 17.7218 16.518 17.6464C16.6052 17.5709 16.673 17.4763 16.7156 17.3702C16.7583 17.264 16.7748 17.1495 16.7635 17.0359C16.7683 16.9418 16.7522 16.8477 16.716 16.7604C16.6799 16.6731 16.6248 16.5946 16.5544 16.5304C16.4841 16.4662 16.4004 16.4179 16.3091 16.3889C16.2178 16.3599 16.121 16.3509 16.0258 16.3624ZM12.1124 18.0773H10.705V17.6475H12.0502V17.2352H10.7065V16.8264H12.1879L12.7806 17.4192L12.1124 18.0773ZM14.445 18.3297L13.5687 17.4221L14.445 16.5719V18.3297ZM15.8205 17.3522H15.0605V16.8301H15.8228C15.8629 16.8211 15.9045 16.8212 15.9446 16.8303C15.9846 16.8393 16.0222 16.8571 16.0543 16.8824C16.0863 16.9077 16.1122 16.9397 16.13 16.9762C16.1476 17.0126 16.1568 17.0525 16.1566 17.0929C16.1564 17.1333 16.147 17.1731 16.129 17.2094C16.1109 17.2457 16.0848 17.2775 16.0525 17.3025C16.0202 17.3275 15.9825 17.3451 15.9424 17.3538C15.9022 17.3625 15.8606 17.3623 15.8205 17.353V17.3522ZM18.9724 17.5479C19.1015 17.5088 19.2134 17.428 19.29 17.3188C19.3666 17.2095 19.4034 17.0781 19.3946 16.9457C19.3898 16.8586 19.3664 16.7735 19.326 16.6959C19.2856 16.6183 19.2291 16.5498 19.16 16.495C19.091 16.4402 19.011 16.4002 18.9252 16.3776C18.8394 16.355 18.7498 16.3503 18.6621 16.3639H17.0761V18.5399H17.6858V17.7719H18.485C18.5296 17.7759 18.573 17.7888 18.6124 17.8098C18.6518 17.8307 18.6864 17.8594 18.7142 17.894C18.7419 17.9286 18.7621 17.9683 18.7736 18.0109C18.7852 18.0534 18.7879 18.0978 18.7813 18.1414L18.7975 18.5399H19.3902L19.368 18.0926C19.3842 18.0309 19.3864 17.9665 19.3745 17.9039C19.3628 17.8413 19.337 17.7819 19.2993 17.7301C19.2616 17.6782 19.2129 17.6351 19.1563 17.6038C19.0999 17.5724 19.0371 17.5536 18.9724 17.5486V17.5479ZM18.4458 17.3224H17.6858V16.8301H18.4488C18.4878 16.8223 18.528 16.8228 18.5668 16.8315C18.6055 16.8402 18.6421 16.8569 18.6738 16.8805C18.7055 16.9041 18.7318 16.934 18.7508 16.9684C18.7699 17.0027 18.7813 17.0406 18.7843 17.0795C18.7843 17.2264 18.6954 17.3232 18.4458 17.3232V17.3224ZM18.1724 15.6352V13.4533H17.5561V15.6352H18.1724ZM12.5139 13.4533H14.528V13.9217H13.1302V14.3304H14.4888V14.7428H13.1302V15.1726H14.528V15.6352H12.5139V13.4533ZM16.8102 14.6381C16.9401 14.5998 17.053 14.5195 17.1303 14.4101C17.2078 14.3007 17.245 14.1688 17.2361 14.0359C17.2306 13.9483 17.2065 13.8628 17.1653 13.785C17.1242 13.7071 17.0669 13.6385 16.9971 13.5837C16.9273 13.5289 16.8466 13.4891 16.7602 13.4667C16.6738 13.4444 16.5835 13.4401 16.4953 13.4541H14.8931V15.6352H15.5094V14.8643H16.3161C16.3613 14.8674 16.4053 14.8797 16.4454 14.9002C16.4855 14.9208 16.5209 14.9493 16.5493 14.9839C16.5778 15.0185 16.5986 15.0584 16.6106 15.1013C16.6226 15.1441 16.6255 15.189 16.6191 15.233L16.6339 15.6352H17.2331L17.2109 15.1886C17.228 15.1262 17.2306 15.061 17.2189 14.9974C17.2071 14.9339 17.1811 14.8738 17.1428 14.8213C17.1044 14.7689 17.0546 14.7254 16.9972 14.6941C16.9396 14.6628 16.8758 14.6444 16.8102 14.6402V14.6381ZM16.2783 14.4133H15.5102V13.9202H16.2805C16.3199 13.9123 16.3604 13.9126 16.3995 13.9212C16.4388 13.9299 16.4755 13.9465 16.5076 13.9702C16.5398 13.9939 16.5663 14.024 16.5856 14.0585C16.605 14.093 16.6166 14.1312 16.6198 14.1704C16.6169 14.3181 16.5272 14.4155 16.2753 14.4155L16.2783 14.4133ZM11.0931 13.4533L10.3368 14.913L9.57908 13.4533H8.6124V15.5493L7.53684 13.4533H6.72202L5.625 15.6352H6.27536L6.51537 15.1493H7.74574L7.98796 15.6352H9.22869V14.0199L10.0524 15.6352H10.6131L11.4561 14.0468V15.6352H12.0694V13.4533H11.0865H11.0931ZM6.75019 14.6744L7.12056 13.9137L7.50352 14.6744H6.75316H6.75019ZM24.5332 13.4533V14.9595L23.4961 13.4533H22.585V15.497L21.5324 13.4533H20.7175L19.8688 15.1392C19.8688 15.1392 19.5102 15.1392 19.4739 15.1312C19.4152 15.1231 19.3586 15.1036 19.3075 15.0741C19.2565 15.0445 19.2119 15.0053 19.1762 14.9587C19.1405 14.9122 19.1146 14.8592 19.0999 14.8028C19.0851 14.7464 19.0819 14.6877 19.0902 14.6301V14.4715C19.0902 13.9624 19.4094 13.9246 19.8191 13.9246H20.1998V13.4533H19.3953C19.1309 13.5004 18.8923 13.6389 18.723 13.8438C18.5535 14.0487 18.4645 14.3064 18.472 14.5702C18.4793 14.834 18.5828 15.0864 18.7634 15.2818C18.9442 15.4771 19.1901 15.6025 19.4569 15.6352H20.2716L20.5124 15.1493H21.7428L21.9835 15.6352H23.1991V14.041L24.3102 15.6352H25.1509V13.4533H24.5346H24.5332ZM20.7472 14.6759L21.1176 13.9152L21.5043 14.6759H20.751H20.7472Z" fill="white"/>
</svg>
