<svg width="32" height="32" viewBox="0 0 32 32" fill="none" xmlns="http://www.w3.org/2000/svg">
<g clip-path="url(#clip0_2156_5549)">
<g clip-path="url(#clip1_2156_5549)">
<path d="M29.1343 5.33325H2.86575C2.75634 5.33325 2.64674 5.33325 2.53754 5.33389C2.44522 5.33455 2.35312 5.33557 2.26102 5.33809C2.06015 5.34352 1.85756 5.35537 1.6592 5.39102C1.45768 5.42729 1.27015 5.48645 1.0872 5.57959C0.907346 5.67106 0.742688 5.79069 0.599993 5.93344C0.457237 6.0762 0.337606 6.24058 0.246161 6.42063C0.152996 6.60358 0.0937985 6.79116 0.0577814 6.99284C0.0219401 7.19126 0.0100098 7.39381 0.00459659 7.59447C0.00212198 7.68657 0.0010606 7.77867 0.000459349 7.87075C-0.000178636 7.98019 3.40259e-05 8.08956 3.40259e-05 8.1992V22.9536C3.40259e-05 23.0633 -0.000178636 23.1724 0.000459349 23.2821C0.0010606 23.3742 0.00212198 23.4663 0.00459659 23.5584C0.0100098 23.7589 0.0219401 23.9614 0.0577814 24.1598C0.0937985 24.3615 0.152996 24.549 0.246161 24.732C0.337606 24.9121 0.457237 25.0767 0.599993 25.2192C0.742688 25.3622 0.907346 25.4818 1.0872 25.573C1.27015 25.6664 1.45768 25.7256 1.6592 25.7618C1.85756 25.7973 2.06015 25.8093 2.26102 25.8148C2.35312 25.8169 2.44522 25.8181 2.53754 25.8185C2.64674 25.8194 2.75634 25.8194 2.86575 25.8194H29.1343C29.2435 25.8194 29.3531 25.8194 29.4623 25.8185C29.5544 25.8181 29.6465 25.8169 29.739 25.8148C29.9395 25.8093 30.142 25.7973 30.3409 25.7618C30.5421 25.7256 30.7297 25.6664 30.9126 25.573C31.0927 25.4818 31.2569 25.3622 31.3999 25.2192C31.5424 25.0767 31.662 24.9121 31.7537 24.732C31.8471 24.549 31.9062 24.3615 31.942 24.1598C31.9779 23.9614 31.9895 23.7589 31.995 23.5584C31.9975 23.4663 31.9987 23.3742 31.9992 23.2821C32 23.1724 32 23.0633 32 22.9536V8.1992C32 8.08956 32 7.98019 31.9992 7.87075C31.9987 7.77867 31.9975 7.68657 31.995 7.59447C31.9895 7.39381 31.9779 7.19126 31.942 6.99284C31.9062 6.79116 31.8471 6.60358 31.7537 6.42063C31.662 6.24058 31.5424 6.0762 31.3999 5.93344C31.2569 5.79069 31.0927 5.67106 30.9126 5.57959C30.7297 5.48645 30.5421 5.42729 30.3409 5.39102C30.142 5.35537 29.9395 5.34352 29.739 5.33809C29.6465 5.33557 29.5544 5.33455 29.4623 5.33389C29.3531 5.33325 29.2435 5.33325 29.1343 5.33325Z" fill="black"/>
<path d="M29.135 6.01611L29.4582 6.01673C29.5457 6.01735 29.6333 6.0183 29.7213 6.0207C29.8744 6.02483 30.0535 6.03313 30.2205 6.06305C30.3656 6.08919 30.4873 6.12894 30.6041 6.18841C30.7195 6.24701 30.8251 6.3238 30.9174 6.41592C31.01 6.50866 31.0869 6.61449 31.1462 6.73108C31.2054 6.84698 31.2449 6.96812 31.2708 7.11432C31.3007 7.27946 31.309 7.45906 31.3131 7.61313C31.3155 7.70008 31.3167 7.78704 31.3171 7.87607C31.3179 7.98374 31.3179 8.09134 31.3179 8.19922V22.9537C31.3179 23.0615 31.3179 23.1689 31.3171 23.2789C31.3167 23.3659 31.3155 23.4528 31.3131 23.5399C31.309 23.6938 31.3007 23.8733 31.2705 24.0404C31.2449 24.1845 31.2054 24.3057 31.1459 24.4222C31.0867 24.5385 31.01 24.6442 30.9178 24.7364C30.825 24.8292 30.7197 24.9057 30.603 24.9649C30.487 25.024 30.3655 25.0637 30.2218 25.0896C30.0515 25.12 29.8649 25.1283 29.7243 25.1321C29.6359 25.1341 29.5479 25.1353 29.4577 25.1357C29.3503 25.1366 29.2425 25.1366 29.135 25.1366H2.86649C2.86506 25.1366 2.86367 25.1366 2.86222 25.1366C2.756 25.1366 2.64957 25.1366 2.54143 25.1357C2.45325 25.1353 2.36526 25.1341 2.2802 25.1322C2.13644 25.1283 1.9497 25.12 1.78075 25.0898C1.63582 25.0637 1.51431 25.024 1.39684 24.9641C1.28125 24.9055 1.17602 24.829 1.0832 24.736C0.991103 24.6441 0.914564 24.5387 0.855386 24.4222C0.79615 24.3058 0.756517 24.1843 0.730459 24.0384C0.700336 23.8716 0.692062 23.6928 0.687926 23.5401C0.685566 23.4526 0.68458 23.3651 0.684019 23.2782L0.683594 23.0214L0.683613 22.9537V8.19922L0.683594 8.13144L0.684 7.87526C0.68458 7.78778 0.685566 7.70032 0.687926 7.61291C0.692062 7.45997 0.700336 7.2811 0.730708 7.11295C0.756537 6.96835 0.79615 6.84683 0.855695 6.72988C0.914409 6.61429 0.991083 6.50877 1.08367 6.41621C1.17589 6.32395 1.28146 6.24726 1.39779 6.1881C1.514 6.12892 1.63574 6.08919 1.78068 6.06311C1.94767 6.03311 2.12691 6.02483 2.28041 6.02068C2.36791 6.0183 2.45541 6.01735 2.54226 6.01675L2.86649 6.01611H29.135Z" fill="white"/>
<path d="M8.73632 12.2235C9.01031 11.8808 9.19624 11.4207 9.1472 10.9504C8.74612 10.9704 8.25667 11.2151 7.9733 11.558C7.71886 11.8517 7.49367 12.3312 7.55238 12.7817C8.00262 12.8207 8.45244 12.5566 8.73632 12.2235Z" fill="black"/>
<path d="M9.144 12.8696C8.49014 12.8306 7.9342 13.2406 7.62195 13.2406C7.30952 13.2406 6.83136 12.8892 6.3142 12.8987C5.64107 12.9085 5.01649 13.2891 4.6749 13.8944C3.97232 15.1054 4.48949 16.9016 5.17271 17.8879C5.5045 18.3758 5.90436 18.913 6.43124 18.8937C6.92905 18.8742 7.12417 18.5714 7.72928 18.5714C8.33394 18.5714 8.50971 18.8937 9.03667 18.884C9.58314 18.8742 9.92478 18.3958 10.2566 17.9074C10.6372 17.3512 10.793 16.8141 10.8028 16.7846C10.793 16.7749 9.74905 16.3744 9.73937 15.1735C9.72951 14.168 10.559 13.6897 10.598 13.6601C10.1296 12.9673 9.39773 12.8892 9.144 12.8696Z" fill="black"/>
<path d="M14.8397 11.5088C16.2609 11.5088 17.2505 12.4884 17.2505 13.9146C17.2505 15.346 16.2405 16.3307 14.8041 16.3307H13.2306V18.833H12.0938V11.5088L14.8397 11.5088ZM13.2306 15.3764H14.535C15.5248 15.3764 16.0882 14.8435 16.0882 13.9197C16.0882 12.996 15.5248 12.4681 14.5401 12.4681H13.2306V15.3764Z" fill="black"/>
<path d="M17.5469 17.3152C17.5469 16.3812 18.2625 15.8077 19.5316 15.7366L20.9932 15.6503V15.2393C20.9932 14.6454 20.5922 14.2901 19.9224 14.2901C19.2878 14.2901 18.8919 14.5946 18.7955 15.0717H17.7601C17.821 14.1073 18.6432 13.3967 19.9629 13.3967C21.2572 13.3967 22.0845 14.0819 22.0845 15.1529V18.8328H21.0338V17.9547H21.0085C20.6989 18.5486 20.0238 18.9241 19.3234 18.9241C18.2778 18.9241 17.5469 18.2744 17.5469 17.3152ZM20.9932 16.833V16.4117L19.6786 16.4929C19.0238 16.5386 18.6534 16.8279 18.6534 17.2847C18.6534 17.7516 19.0391 18.0562 19.6279 18.0562C20.3943 18.0562 20.9932 17.5283 20.9932 16.833Z" fill="black"/>
<path d="M23.0787 20.7973V19.9091C23.1597 19.9293 23.3424 19.9293 23.4339 19.9293C23.9414 19.9293 24.2155 19.7162 24.3829 19.168C24.3829 19.1579 24.4795 18.8432 24.4795 18.8381L22.5508 13.4934H23.7383L25.0886 17.8382H25.1088L26.4591 13.4934H27.6163L25.6163 19.1121C25.1597 20.4065 24.6318 20.8227 23.5253 20.8227C23.4339 20.8227 23.1597 20.8125 23.0787 20.7973Z" fill="black"/>
</g>
</g>
<defs>
<clipPath id="clip0_2156_5549">
<rect width="32" height="32" fill="white"/>
</clipPath>
<clipPath id="clip1_2156_5549">
<rect width="32" height="20.4861" fill="white" transform="translate(0 5.33325)"/>
</clipPath>
</defs>
</svg>
