<svg width="32" height="32" viewBox="0 0 32 32" fill="none" xmlns="http://www.w3.org/2000/svg">
<path d="M23.4894 8H8.51064C3.82979 8 0 11.841 0 16.5356C0 21.2301 3.82979 25.0712 8.51064 25.0712H23.4894C28.1702 25.0712 32 21.2301 32 16.5356C32 11.841 28.1702 8 23.4894 8Z" fill="white"/>
<path d="M23.4894 8.69138C24.5404 8.69138 25.5617 8.9005 26.5234 9.31021C27.4553 9.70712 28.2894 10.2747 29.0128 10.996C29.7319 11.7172 30.2979 12.558 30.6936 13.4926C31.1021 14.4572 31.3106 15.4814 31.3106 16.5356C31.3106 17.5897 31.1021 18.614 30.6936 19.5785C30.2979 20.5132 29.7319 21.3496 29.0128 22.0752C28.2936 22.7964 27.4553 23.364 26.5234 23.7609C25.5617 24.1707 24.5404 24.3798 23.4894 24.3798H8.51064C7.45957 24.3798 6.4383 24.1707 5.4766 23.7609C4.54468 23.364 3.71064 22.7964 2.98723 22.0752C2.26808 21.3539 1.70213 20.5132 1.30638 19.5785C0.897872 18.614 0.689362 17.5897 0.689362 16.5356C0.689362 15.4814 0.897872 14.4572 1.30638 13.4926C1.70213 12.558 2.26808 11.7215 2.98723 10.996C3.70638 10.2747 4.54468 9.70712 5.4766 9.31021C6.4383 8.9005 7.45957 8.69138 8.51064 8.69138H23.4894ZM23.4894 8H8.51064C3.82979 8 0 11.841 0 16.5356C0 21.2301 3.82979 25.0712 8.51064 25.0712H23.4894C28.1702 25.0712 32 21.2301 32 16.5356C32 11.841 28.1702 8 23.4894 8Z" fill="#3C4043"/>
<path d="M15.2584 17.1417V19.7237H14.4414V13.3477H16.6074C17.1563 13.3477 17.6244 13.5312 18.0074 13.8982C18.3989 14.2652 18.5946 14.7133 18.5946 15.2426C18.5946 15.7846 18.3989 16.2327 18.0074 16.5954C17.6286 16.9582 17.1606 17.1375 16.6074 17.1375H15.2584V17.1417ZM15.2584 14.1329V16.3564H16.6244C16.9478 16.3564 17.2201 16.2455 17.4329 16.0278C17.6499 15.8102 17.7606 15.5456 17.7606 15.2468C17.7606 14.9523 17.6499 14.692 17.4329 14.4744C17.2201 14.2482 16.952 14.1372 16.6244 14.1372H15.2584V14.1329Z" fill="#3C4043"/>
<path d="M20.7299 15.217C21.3342 15.217 21.8108 15.3792 22.1597 15.7036C22.5086 16.0279 22.6831 16.4718 22.6831 17.0351V19.7238H21.9044V19.1178H21.8703C21.5342 19.6171 21.0831 19.8647 20.5214 19.8647C20.0405 19.8647 19.6405 19.7238 19.3171 19.4379C18.9937 19.1519 18.832 18.7977 18.832 18.3709C18.832 17.9186 19.0022 17.5601 19.3427 17.2955C19.6831 17.0266 20.1384 16.8943 20.7044 16.8943C21.1895 16.8943 21.5895 16.9839 21.9001 17.1632V16.9754C21.9001 16.6894 21.7895 16.4504 21.5639 16.2498C21.3384 16.0493 21.0746 15.9511 20.7725 15.9511C20.3171 15.9511 19.9554 16.1432 19.6916 16.5315L18.9725 16.0791C19.3682 15.503 19.9554 15.217 20.7299 15.217ZM19.6746 18.3837C19.6746 18.5971 19.7639 18.7764 19.9469 18.9172C20.1256 19.0581 20.3384 19.1306 20.581 19.1306C20.9256 19.1306 21.232 19.0026 21.5001 18.7465C21.7682 18.4904 21.9044 18.1917 21.9044 17.846C21.6491 17.6454 21.2959 17.543 20.8405 17.543C20.5086 17.543 20.232 17.6241 20.0108 17.782C19.7852 17.9484 19.6746 18.149 19.6746 18.3837Z" fill="#3C4043"/>
<path d="M27.1263 15.3579L24.4029 21.6401H23.5603L24.5731 19.4422L22.7773 15.3579H23.6667L24.9603 18.4905H24.9773L26.2369 15.3579H27.1263Z" fill="#3C4043"/>
<path d="M12.0084 16.6209C12.0084 16.3538 11.9846 16.0981 11.9403 15.8523H8.51562V17.2607L10.488 17.2611C10.408 17.7297 10.1505 18.1292 9.75605 18.3955V19.3092H10.9301C11.6156 18.6729 12.0084 17.7323 12.0084 16.6209Z" fill="#4285F4"/>
<path d="M9.75569 18.3955C9.42888 18.6166 9.00803 18.7459 8.51568 18.7459C7.56462 18.7459 6.75781 18.1032 6.46888 17.2368H5.25781V18.1791C5.85781 19.3733 7.091 20.1927 8.51568 20.1927C9.50037 20.1927 10.3276 19.8679 10.9297 19.3088L9.75569 18.3955Z" fill="#34A853"/>
<path d="M6.35577 16.5376C6.35577 16.2943 6.3962 16.0592 6.46982 15.8381V14.8958H5.25875C5.01067 15.3895 4.87109 15.9469 4.87109 16.5376C4.87109 17.1282 5.01109 17.6856 5.25875 18.1794L6.46982 17.2371C6.3962 17.016 6.35577 16.7808 6.35577 16.5376Z" fill="#FABB05"/>
<path d="M8.51568 14.3291C9.05313 14.3291 9.53441 14.5148 9.91441 14.8775L10.9548 13.8349C10.3229 13.2447 9.49909 12.8823 8.51568 12.8823C7.09143 12.8823 5.85781 13.7017 5.25781 14.8959L6.46888 15.8382C6.75781 14.9718 7.56462 14.3291 8.51568 14.3291Z" fill="#E94235"/>
</svg>
