<svg width="32" height="32" viewBox="0 0 32 32" fill="none" xmlns="http://www.w3.org/2000/svg">
<path d="M27.2833 8H4.71925C3.58636 8 2.66797 8.89543 2.66797 10V22C2.66797 23.1046 3.58636 24 4.71925 24H27.2833C28.4162 24 29.3346 23.1046 29.3346 22V10C29.3346 8.89543 28.4162 8 27.2833 8Z" fill="#353A48"/>
<path d="M13.0148 20.3599C15.4845 20.3599 17.4866 18.4078 17.4866 15.9999C17.4866 13.5919 15.4845 11.6399 13.0148 11.6399C10.5451 11.6399 8.54297 13.5919 8.54297 15.9999C8.54297 18.4078 10.5451 20.3599 13.0148 20.3599Z" fill="#E82C30"/>
<path d="M18.9835 20.3599C21.4533 20.3599 23.4554 18.4078 23.4554 15.9999C23.4554 13.5919 21.4533 11.6399 18.9835 11.6399C16.5138 11.6399 14.5117 13.5919 14.5117 15.9999C14.5117 18.4078 16.5138 20.3599 18.9835 20.3599Z" fill="#ECA21D"/>
<path fill-rule="evenodd" clip-rule="evenodd" d="M14.5117 15.9999C14.5117 14.7101 15.0862 13.5512 15.9991 12.7529C16.9121 13.5512 17.4864 14.7101 17.4864 15.9999C17.4864 17.2896 16.9121 18.4485 15.9991 19.2468C15.0862 18.4485 14.5117 17.2896 14.5117 15.9999Z" fill="#F36D1E"/>
</svg>
