<svg preserveAspectRatio="none" width="100%" height="100%" overflow="visible" style="display: block;" viewBox="0 0 23.5098 22.7927" fill="none" xmlns="http://www.w3.org/2000/svg">
<path id="Vector" d="M8.18644 14.4509C8.18644 14.0509 7.84909 13.7236 7.43677 13.7236H3.89831C2.57138 13.7236 1.49185 12.6764 1.49185 11.3891C1.49185 10.1018 2.57138 9.05455 3.89831 9.05455H7.50424C7.91656 9.05455 8.25391 8.72727 8.25391 8.32727C8.25391 7.92727 7.91656 7.6 7.50424 7.6H3.89831C1.74674 7.6 0 9.29455 0 11.3818C0 13.4691 1.74674 15.1636 3.89831 15.1636H7.43677C7.84909 15.1636 8.18644 14.8364 8.18644 14.4291V14.4509ZM12.737 11.3964L12.8344 11.2873C14.6561 9.19273 15.6607 6.53091 15.6607 3.78182C15.6607 1.03273 13.914 0 11.7624 0C9.61082 0 7.86408 1.69455 7.86408 3.78182C7.86408 5.86909 8.86865 9.19273 10.6904 11.2873L10.7878 11.3964L10.6904 11.5055C8.86865 13.6 7.86408 16.2618 7.86408 19.0109C7.86408 21.76 9.61082 22.7927 11.7624 22.7927C13.914 22.7927 15.6607 21.0982 15.6607 19.0109C15.6607 16.9236 14.6561 13.6 12.8344 11.5055L12.737 11.3964ZM9.35593 3.78182C9.35593 2.49455 10.4355 1.44727 11.7624 1.44727C13.0893 1.44727 14.1688 2.49455 14.1688 3.78182C14.1688 6.14545 13.3142 8.44364 11.7624 10.2618C10.2181 8.44364 9.35593 6.14545 9.35593 3.78182ZM11.7624 21.3382C10.4355 21.3382 9.35593 20.2909 9.35593 19.0036C9.35593 16.64 10.2106 14.3418 11.7624 12.5236C13.3142 14.3491 14.1688 16.64 14.1688 19.0036C14.1688 20.2909 13.0968 21.3382 11.7624 21.3382ZM19.6115 7.60727H16.0055C15.5932 7.60727 15.2559 7.93455 15.2559 8.33455C15.2559 8.73455 15.5932 9.06182 16.0055 9.06182H19.6115C20.9384 9.06182 22.0179 10.1091 22.0179 11.3964C22.0179 12.6836 20.9384 13.7309 19.6115 13.7309H16.073C15.6607 13.7309 15.3233 14.0582 15.3233 14.4582C15.3233 14.8582 15.6532 15.1855 16.073 15.1855H19.6115C21.763 15.1855 23.5098 13.4909 23.5098 11.4036C23.5098 9.31636 21.763 7.62909 19.6115 7.62909V7.60727Z" fill="var(--fill-0, #46C1D1)"/>
</svg>
