<svg preserveAspectRatio="none" width="100%" height="100%" overflow="visible" style="display: block;" viewBox="0 0 86.1832 18.9818" fill="none" xmlns="http://www.w3.org/2000/svg">
<g id="Frame 1000005952">
<path id="Vector" d="M1.66428 18.1818V13.1564C2.67634 14.1236 4.06323 14.72 5.58507 14.72C8.66623 14.72 11.1701 12.2909 11.1701 9.30182C11.1701 6.31273 8.66623 3.88364 5.58507 3.88364C3.9208 3.88364 2.67634 4.48 1.66428 5.44727V4.85091C1.66428 4.40727 1.28944 4.04364 0.832139 4.04364C0.374838 4.04364 0 4.40727 0 4.85091V18.1745C0 18.6182 0.374838 18.9818 0.832139 18.9818C1.28944 18.9818 1.66428 18.6182 1.66428 18.1745V18.1818ZM1.66428 9.30182C1.66428 7.20727 3.42601 5.49818 5.58507 5.49818C7.74413 5.49818 9.50587 7.20727 9.50587 9.30182C9.50587 11.3964 7.74413 13.1127 5.58507 13.1127C3.42601 13.1127 1.66428 11.4036 1.66428 9.30182ZM33.9452 4.10182C30.8641 4.10182 28.3602 6.53091 28.3602 9.52C28.3602 12.5091 30.8641 14.9382 33.9452 14.9382C37.0264 14.9382 39.5303 12.5091 39.5303 9.52C39.5303 6.53091 37.0264 4.10182 33.9452 4.10182ZM33.9452 13.3236C31.7862 13.3236 30.0245 11.6145 30.0245 9.52C30.0245 7.42545 31.7862 5.71636 33.9452 5.71636C36.1043 5.71636 37.866 7.42545 37.866 9.52C37.866 11.6145 36.1118 13.3236 33.9452 13.3236ZM26.8009 14.1309V0.807273C26.8009 0.363637 26.426 0 25.9687 0C25.5114 0 25.1366 0.363637 25.1366 0.807273V14.1309C25.1366 14.5745 25.5114 14.9382 25.9687 14.9382C26.426 14.9382 26.8009 14.5745 26.8009 14.1309ZM22.0104 9.54182V14.1309C22.0104 14.5745 22.3778 14.9236 22.8276 14.9236C23.2774 14.9236 23.6447 14.5673 23.6447 14.1309V9.44C23.5922 6.53818 21.1483 4.19636 18.1421 4.19636C16.3429 4.19636 15.2859 4.77818 14.2888 5.73091V0.8C14.2888 0.356364 13.9214 0.00727289 13.4716 0.00727289C13.0218 0.00727289 12.6545 0.363636 12.6545 0.8V9.30182C12.6545 9.38182 12.6545 9.46182 12.6545 9.54182C12.6545 9.62182 12.6545 9.6 12.6545 9.63636V14.1455C12.6545 14.5891 13.0218 14.9382 13.4716 14.9382C13.9214 14.9382 14.2888 14.5818 14.2888 14.1455V9.34546C14.4012 7.37455 16.088 5.80364 18.1421 5.80364C20.1962 5.80364 22.0029 7.48364 22.0029 9.54909L22.0104 9.54182Z" fill="var(--fill-0, #07073D)"/>
<g id="Vector_2">
<path d="M53.3924 0.261818C53.5724 0.0872725 53.8048 0 54.0672 0C54.3295 0 54.5544 0.0945454 54.7344 0.276364C54.9143 0.458182 55.0042 0.669091 55.0042 0.901818V14.2109C55.0042 14.4727 54.9143 14.6909 54.7269 14.8655C54.5394 15.04 54.2996 15.1273 54.0447 15.1273C53.7898 15.1273 53.5649 15.04 53.3775 14.8582C53.19 14.6836 53.1001 14.4655 53.1001 14.2109L53.1226 0.901818C53.1226 0.647273 53.2125 0.436363 53.3924 0.261818Z" fill="var(--fill-0, #46C1D1)"/>
<path d="M50.2588 11.7455C50.4762 11.7455 50.6936 11.8182 50.896 11.9709V11.9855C51.1059 12.1236 51.2109 12.3709 51.2109 12.6182C51.2109 12.8655 51.1284 13.0691 50.971 13.2364C50.4387 13.8255 49.794 14.2982 49.0443 14.6327C48.2947 14.9673 47.7099 15.1345 46.6904 15.1345C45.6708 15.1345 44.7187 14.88 43.8566 14.3927C42.9945 13.8982 42.2973 13.2291 41.795 12.3927C41.2852 11.5564 41.0303 10.6327 41.0303 9.64364C41.0303 8.65455 41.2927 7.73091 41.795 6.89455C42.2973 6.05818 42.9945 5.38909 43.8566 4.89455C44.7187 4.4 45.8657 4.15273 46.6829 4.15273C47.5 4.15273 48.2947 4.32 49.0368 4.65455C49.779 4.98182 50.4312 5.45455 50.9635 6.05091C51.1059 6.19636 51.1809 6.38545 51.1809 6.61818C51.1809 6.75636 51.1509 6.89455 51.091 7.02545C51.031 7.15636 50.9485 7.26545 50.8361 7.35273C50.7086 7.45455 50.5362 7.50545 50.3188 7.50545C50.1838 7.50545 50.0489 7.48364 49.9215 7.43273C49.794 7.38909 49.6816 7.31636 49.5841 7.22182C49.2168 6.80727 48.782 6.48727 48.2797 6.26909C47.7774 6.04364 47.3726 5.93455 46.6904 5.93455C46.0082 5.93455 45.3634 6.10909 44.7862 6.43636C44.2089 6.76364 43.7441 7.21455 43.3993 7.78182C43.0544 8.34182 42.882 8.96727 42.882 9.63636C42.882 10.3055 43.0619 10.9309 43.3993 11.4909C43.7366 12.0509 44.2014 12.5091 44.7862 12.8364C45.3709 13.1709 46.1431 13.3382 46.6904 13.3382C47.2376 13.3382 47.7774 13.2218 48.2797 13.0036C48.782 12.7855 49.2168 12.4655 49.5766 12.0655C49.764 11.8545 50.0414 11.7455 50.2588 11.7455Z" fill="var(--fill-0, #46C1D1)"/>
<path d="M57.3732 4.41455C57.5606 4.24 57.778 4.15273 58.0329 4.15273C58.2878 4.15273 58.5127 4.24 58.7001 4.41455C58.8876 4.59636 58.9775 4.80727 58.9775 5.06182V14.2182C58.9775 14.4727 58.8876 14.6909 58.7001 14.8655C58.5202 15.04 58.2803 15.1273 58.0329 15.1273C57.7855 15.1273 57.5681 15.04 57.3807 14.8582C57.1933 14.6764 57.0958 14.4655 57.0958 14.2182V5.06182C57.0958 4.80727 57.1858 4.58909 57.3732 4.41455Z" fill="var(--fill-0, #46C1D1)"/>
<path d="M57.2982 0.305454C57.5007 0.101818 57.7481 0 58.0329 0C58.3253 0 58.5802 0.101818 58.7826 0.305454C58.985 0.501818 59.09 0.749091 59.09 1.03273C59.09 1.31636 58.985 1.56364 58.7826 1.76C58.5802 1.95636 58.3178 2.05818 58.0329 2.05818C57.7481 2.05818 57.5007 1.95636 57.2982 1.76C57.0958 1.56364 56.9909 1.31636 56.9909 1.03273C56.9909 0.749091 57.0958 0.509091 57.2982 0.305454Z" fill="var(--fill-0, #46C1D1)"/>
<path d="M72.9289 0.305454C73.1314 0.101818 73.3788 0 73.6636 0C73.956 0 74.2109 0.101818 74.4133 0.305454C74.6157 0.501818 74.7207 0.749091 74.7207 1.03273C74.7207 1.31636 74.6157 1.56364 74.4133 1.76C74.2109 1.95636 73.9485 2.05818 73.6636 2.05818C73.3788 2.05818 73.1314 1.95636 72.9289 1.76C72.7265 1.56364 72.6216 1.31636 72.6216 1.03273C72.6216 0.749091 72.7265 0.509091 72.9289 0.305454Z" fill="var(--fill-0, #46C1D1)"/>
<path d="M85.2311 11.7455C85.4485 11.7455 85.6659 11.8182 85.8683 11.9709V11.9855C86.0782 12.1236 86.1832 12.3709 86.1832 12.6182C86.1832 12.8655 86.1007 13.0691 85.9433 13.2364C85.411 13.8255 84.7663 14.2982 84.0166 14.6327C83.267 14.9673 82.6822 15.1345 81.6627 15.1345C80.6431 15.1345 79.691 14.88 78.8289 14.3927C77.9668 13.8982 77.2696 13.2291 76.7673 12.3927C76.2575 11.5564 76.0026 10.6327 76.0026 9.64364C76.0026 8.65455 76.265 7.73091 76.7673 6.89455C77.2696 6.05818 77.9668 5.38909 78.8289 4.89455C79.691 4.4 80.838 4.15273 81.6552 4.15273C82.4723 4.15273 83.267 4.32 84.0091 4.65455C84.7513 4.98182 85.4035 5.45455 85.9358 6.05091C86.0782 6.19636 86.1532 6.38545 86.1532 6.61818C86.1532 6.75636 86.1232 6.89455 86.0632 7.02545C86.0033 7.15636 85.9208 7.26545 85.8084 7.35273C85.6809 7.45455 85.5085 7.50545 85.2911 7.50545C85.1561 7.50545 85.0212 7.48364 84.8938 7.43273C84.7663 7.38909 84.6539 7.31636 84.5564 7.22182C84.1891 6.80727 83.7542 6.48727 83.252 6.26909C82.7497 6.04364 82.3449 5.93455 81.6627 5.93455C80.9804 5.93455 80.3357 6.10909 79.7585 6.43636C79.1812 6.76364 78.7164 7.21455 78.3716 7.78182C78.0267 8.34182 77.8543 8.96727 77.8543 9.63636C77.8543 10.3055 78.0342 10.9309 78.3716 11.4909C78.7089 12.0509 79.1737 12.5091 79.7585 12.8364C80.3432 13.1709 81.1154 13.3382 81.6627 13.3382C82.2099 13.3382 82.7497 13.2218 83.252 13.0036C83.7542 12.7855 84.1891 12.4655 84.5489 12.0655C84.7363 11.8545 85.0137 11.7455 85.2311 11.7455Z" fill="var(--fill-0, #46C1D1)"/>
<path d="M66.002 4.14545C66.8791 4.14545 67.7037 4.35636 68.4384 4.77091C69.1806 5.18545 69.7728 5.75273 70.2001 6.45818C70.6275 7.16364 70.8449 7.94182 70.8449 8.77091V14.2255C70.8449 14.48 70.7474 14.6909 70.56 14.8655C70.3726 15.04 70.1776 15.1273 69.9153 15.1273C69.6529 15.1273 69.428 15.04 69.2481 14.8655C69.0681 14.6909 68.9782 14.48 68.9782 14.2255V8.77091C68.9782 8.25455 68.8432 7.77455 68.5808 7.33818C68.311 6.90182 67.9511 6.56 67.5013 6.30545C67.044 6.05818 66.5417 5.92727 66.0095 5.92727C65.4772 5.92727 64.9824 6.05091 64.5326 6.29818C64.0828 6.54545 63.723 6.88727 63.4531 7.30182C63.1832 7.71636 63.0408 8.18182 63.0258 8.66909V14.2182C63.0258 14.4727 62.9358 14.6836 62.7484 14.8582C62.5685 15.0327 62.3735 15.12 62.1112 15.12C61.8488 15.12 61.6239 15.0327 61.4439 14.8582C61.264 14.6836 61.1741 14.4727 61.1741 14.2255V5.03273C61.1741 4.77091 61.264 4.56 61.4439 4.39273C61.6239 4.23273 61.8413 4.14545 62.1112 4.14545C62.381 4.14545 62.5984 4.23273 62.7709 4.40727C62.9358 4.58182 63.0258 4.79273 63.0258 5.04V5.12727C63.4231 4.82182 63.8804 4.58182 64.3827 4.41455C64.9074 4.23273 65.1248 4.14545 66.002 4.14545Z" fill="var(--fill-0, #46C1D1)"/>
<path d="M73.0039 4.40727C73.1913 4.23273 73.4087 4.14545 73.6636 4.14545C73.9185 4.14545 74.1434 4.23273 74.3308 4.40727C74.5183 4.58909 74.6082 4.8 74.6082 5.05455V14.2109C74.6082 14.4655 74.5183 14.6836 74.3308 14.8582C74.1509 15.0327 73.911 15.12 73.6636 15.12C73.4162 15.12 73.1988 15.0327 73.0114 14.8509C72.824 14.6691 72.7265 14.4582 72.7265 14.2109V5.05455C72.7265 4.8 72.8165 4.58182 73.0039 4.40727Z" fill="var(--fill-0, #46C1D1)"/>
</g>
</g>
</svg>
