<svg width="32" height="32" viewBox="0 0 32 32" fill="none" xmlns="http://www.w3.org/2000/svg">
<path d="M27.2833 8H4.71925C3.58636 8 2.66797 8.89543 2.66797 10V22C2.66797 23.1046 3.58636 24 4.71925 24H27.2833C28.4162 24 29.3346 23.1046 29.3346 22V10C29.3346 8.89543 28.4162 8 27.2833 8Z" fill="#224DBA"/>
<path d="M11.4692 18.8042H9.90512L8.72432 14.3748C8.70395 14.2788 8.66315 14.1877 8.60439 14.1071C8.54565 14.0264 8.47016 13.9578 8.38251 13.9055C7.9356 13.6801 7.45284 13.5249 6.95312 13.4459V13.2699H9.49081C9.65231 13.2735 9.80709 13.3317 9.92689 13.434C10.0467 13.5364 10.1235 13.6759 10.1434 13.8273L10.7338 17.0148L12.2978 13.2699H13.8204L11.4692 18.8042ZM14.6904 18.8042H13.2093L14.4211 13.2699H15.9023L14.6904 18.8042ZM17.7979 14.805C17.816 14.6676 17.8898 14.542 18.0036 14.4546C18.1174 14.3672 18.2627 14.3246 18.409 14.3357C18.9044 14.2953 19.4022 14.3832 19.8487 14.5899L20.1077 13.397C19.6968 13.2366 19.2576 13.1503 18.8129 13.1428C17.3836 13.1428 16.3373 13.9055 16.3373 14.9713C16.3774 15.3051 16.5162 15.6215 16.7379 15.8843C16.9594 16.1472 17.255 16.3458 17.5907 16.4575C18.1603 16.7117 18.3779 16.8877 18.3364 17.1419C18.2988 17.3245 18.1862 17.4856 18.0231 17.59C17.8601 17.6944 17.66 17.7337 17.4663 17.6993C16.9389 17.6972 16.4187 17.5836 15.9438 17.3668L15.6848 18.5499C16.1928 18.7523 16.739 18.8554 17.2903 18.853C18.8129 18.9215 19.8487 18.1197 19.8487 16.9659C19.8487 15.5188 17.7771 15.4308 17.7771 14.7953L17.7979 14.805ZM25.0483 18.8042L23.8572 13.2699H22.6039C22.4671 13.2721 22.3346 13.3148 22.2249 13.392C22.1152 13.4692 22.034 13.577 21.9928 13.7002L19.8487 18.8042H21.3713L21.6717 17.9926H23.5464L23.7122 18.8042H25.0483ZM22.8214 14.7562L23.2564 16.8388H22.0342L22.8214 14.7562Z" fill="white"/>
</svg>
